<?xml version="1.0" standalone="no"?>
<!DOCTYPE svg PUBLIC "-//W3C//DTD SVG 20010904//EN" "http://www.w3.org/TR/2001/REC-SVG-20010904/DTD/svg10.dtd">
<!-- Created using Krita: https://krita.org -->
<svg xmlns="http://www.w3.org/2000/svg" 
    xmlns:xlink="http://www.w3.org/1999/xlink"
    xmlns:krita="http://krita.org/namespaces/svg/krita"
    xmlns:sodipodi="http://sodipodi.sourceforge.net/DTD/sodipodi-0.dtd"
    width="240pt"
    height="240pt"
    viewBox="0 0 240 240">
<defs/>
<path id="shape0" transform="matrix(7.71792038198897 0 0 7.71792038198895 39.6007031857738 183.867197632968)" fill="#595959" fill-rule="evenodd" stroke="#000000" stroke-width="0.72" stroke-linecap="square" stroke-linejoin="bevel" d="M3.27804 0L17.588 0.09C20.0679 0.673461 20.4948 3.00798 20.438 5.73L0.0380395 5.73C-0.197996 2.86953 0.638399 0.783593 3.27804 0Z" sodipodi:nodetypes="ccccc"/><path id="shape01" transform="matrix(7.71792134116171 0 0 7.71792134116169 54.6412186074395 5.93324918002046)" fill="#595959" fill-rule="evenodd" stroke="#000000" stroke-width="0.72" stroke-linecap="square" stroke-linejoin="miter" stroke-miterlimit="2" d="M2.96748 22.9926C1.87966 21.7077 -0.428148 18.3153 0.0692618 14.0246C0.339334 10.2269 4.70504 5.35844 5.93426 4.43965C5.67084 3.97532 5.13431 2.61979 5.70999 1.50619C6.44869 0.031788 7.56012 0.016687 7.99357 0C8.66891 0.051282 9.69585 0.40267 10.5093 2.53465C10.6667 2.96591 6.91271 6.40241 6.91313 15.2922C7.39493 15.3055 8.83659 15.4339 9.47426 15.5246C9.57474 11.4604 10.2897 8.19042 11.6193 5.71465C17.0561 11.757 17.6861 17.527 13.5093 23.0246" sodipodi:nodetypes="cccccccccc"/><path id="shape011" transform="matrix(0.00609675379322857 7.71791797603321 -7.71791797603322 0.00609675379322856 190.63344224218 186.557251333961)" fill="#737373" fill-rule="evenodd" stroke-opacity="0" stroke="#000000" stroke-width="0" stroke-linecap="square" stroke-linejoin="bevel" d="M1.70679 18.5724C0.884498 18.155 0.29252 17.1561 0.00802985 16.3178C-0.0242782 15.7215 0.0521726 10.7022 0.0396997 8.84537C0.143399 5.69815 0.060205 2.75876 0.122429 1.97421C0.302794 1.1173 0.766059 0.499852 1.72155 0C1.44581 2.74626 0.927401 3.18386 0.934177 9.2118C0.886743 15.7062 1.48554 16.9821 1.70679 18.5724Z" sodipodi:nodetypes="ccccccc"/><path id="shape02" transform="matrix(7.7179207271785 0 0 7.7179207271785 94.3250932275504 14.8392467998899)" fill="#404040" fill-rule="evenodd" stroke-opacity="0" stroke="#000000" stroke-width="0" stroke-linecap="square" stroke-linejoin="bevel" d="M1.39791 14.4906C1.34326 12.5667 2.02246 7.87566 2.41466 6.78078C2.93724 5.41607 3.97213 2.78585 4.99569 1.48797C4.87893 0.887036 4.2799 0.0615197 4.2183 0C4.39013 1.601 0.693555 8.20112 0.201573 9.78963C-0.153678 10.8123 -0.194389 12.7224 1.39791 14.4906Z" sodipodi:nodetypes="cccccc"/><path id="shape03" transform="matrix(7.71792056216625 0 0 7.71792056216625 119.475523141133 80.1342658312013)" fill="#404040" fill-rule="evenodd" stroke-opacity="0" stroke="#000000" stroke-width="0" stroke-linecap="square" stroke-linejoin="bevel" d="M0 13.3796C1.35347 13.4105 3.02235 13.4206 4.68256 13.3917C5.85616 11.9852 7.31328 9.36396 7.44593 6.8386C7.74007 4.27062 6.71365 1.66021 5.64822 0C6.11609 2.24704 6.37976 5.5884 5.57663 7.71462C4.1736 11.2012 1.09193 12.7252 0 13.3796Z" sodipodi:nodetypes="cccccc"/><path id="shape04" transform="matrix(7.71792056216625 0 0 7.71792056216625 57.409956832316 41.1472374906852)" fill="#737373" fill-rule="evenodd" stroke-opacity="0" stroke="#000000" stroke-width="0" stroke-linecap="square" stroke-linejoin="bevel" d="M0.222322 12.7118C0.916054 10.0442 0.907883 8.11404 2.04735 6.2358C3.02053 4.61665 5.06442 1.29336 6.03279 0C4.55921 1.06151 2.36987 3.74686 1.27877 5.88348C0.0632184 7.68489 -0.278189 10.4541 0.222322 12.7118Z" sodipodi:nodetypes="ccccc"/><path id="shape05" transform="matrix(7.71792061970381 0 0 7.71792061970381 99.6693399275075 8.69879630492753)" fill="#737373" fill-rule="evenodd" stroke-opacity="0" stroke="#000000" stroke-width="0" stroke-linecap="square" stroke-linejoin="bevel" d="M0.0883302 3.09134C0.326232 1.85172 1.34539 0.417212 2.08039 0C1.22144 0.144279 0.862099 0.301873 0.446659 0.88671C0.00992433 1.51702 -0.100044 2.18933 0.0883302 3.09134Z" sodipodi:nodetypes="cccc"/>
</svg>
