<?xml version="1.0" standalone="no"?>
<!DOCTYPE svg PUBLIC "-//W3C//DTD SVG 20010904//EN" "http://www.w3.org/TR/2001/REC-SVG-20010904/DTD/svg10.dtd">
<!-- Created using Krita: https://krita.org -->
<svg xmlns="http://www.w3.org/2000/svg" 
    xmlns:xlink="http://www.w3.org/1999/xlink"
    xmlns:krita="http://krita.org/namespaces/svg/krita"
    xmlns:sodipodi="http://sodipodi.sourceforge.net/DTD/sodipodi-0.dtd"
    width="240pt"
    height="240pt"
    viewBox="0 0 240 240">
<defs/>
<path id="shape0" transform="matrix(7.74034755046024 0 0 7.74034755046023 18.0922224175686 6.88798144294225)" fill="#595959" fill-rule="evenodd" stroke="#000000" stroke-width="0.72" stroke-linecap="square" stroke-linejoin="miter" stroke-miterlimit="2" d="M5.87606 22.783C6.66176 19.7217 9.90575 17.062 12.1764 14.7432C13.0331 13.8578 13.1076 12.9456 12.3997 12.0067C11.0178 13.3799 9.79789 14.3415 8.73984 14.8917C7.89375 14.9718 7.20786 15.0213 6.68216 15.0402C6.28053 15.9385 5.70071 16.6527 4.94268 17.1827C2.2774 16.8314 0.629837 15.9617 0 14.5735C1.96043 11.3273 3.17666 9.4464 3.64867 8.93076C4.12983 5.78997 5.33191 3.96564 7.25492 3.45775C7.53152 1.26932 8.06893 0.116734 8.86712 0C10.153 1.64745 11.15 2.53134 11.8582 2.65165C15.8289 3.16113 18.8494 5.16081 20.9197 8.6507C22.9067 13.186 23.0567 17.826 21.3697 22.5707" sodipodi:nodetypes="ccccccccccccc"/><path id="shape01" transform="matrix(7.74034726168683 0 0 7.74034726168682 43.8294471454193 182.074000712004)" fill="#595959" fill-rule="evenodd" stroke="#000000" stroke-width="0.72" stroke-linecap="square" stroke-linejoin="bevel" d="M3.27804 0L17.588 0.09C20.0679 0.673461 20.4948 3.00798 20.438 5.73L0.0380395 5.73C-0.197996 2.86953 0.638399 0.783593 3.27804 0Z" sodipodi:nodetypes="ccccc"/><path id="shape1" transform="matrix(7.74034755046024 0 0 7.74034755046023 113.793283680401 79.7918231312292)" fill="#404040" fill-rule="evenodd" stroke-opacity="0" stroke="#000000" stroke-width="0" stroke-linecap="square" stroke-linejoin="bevel" d="M0 2.1026C0.195924 1.40406 0.84973 -0.0133841 1.40364 9.54608e-05C1.70871 0.852462 1.21487 2.5829 0.912073 3.93267C0.772803 3.55807 0.735312 3.06469 0.523099 2.69407C0.373654 2.43307 0.277365 2.32016 0 2.1026Z" sodipodi:nodetypes="ccccc"/><path id="shape03" transform="matrix(7.74034784998965 0 0 7.74034784998964 74.212227022988 52.5256564075315)" fill="#000000" fill-rule="evenodd" stroke-opacity="0" stroke="#000000" stroke-width="0" stroke-linecap="square" stroke-linejoin="bevel" d="M2.05167 2.03766C2.64886 1.93231 2.93539 1.44962 2.79413 0.934576C2.96539 0.369734 1.98661 -0.0246027 1.66983 0.00119541C0.606422 0.267381 0.0498124 1.01519 0 2.24463" sodipodi:nodetypes="cccc"/><path id="shape05" transform="matrix(7.7403479152886 0 0 7.7403479152886 56.268157093201 111.121318601663)" fill="#404040" fill-rule="evenodd" stroke-opacity="0" stroke="#000000" stroke-width="0" stroke-linecap="square" stroke-linejoin="bevel" d="M0 3.31341C0.218788 1.85912 0.482956 0.883761 1.13325 0.104472C1.68812 -0.340625 2.5487 0.758021 3.09654 1.12293C2.28203 1.18664 1.98626 1.17727 1.48561 1.22361C1.41763 1.80555 0.702949 2.70606 0 3.31341Z" sodipodi:nodetypes="ccccc"/><path id="shape11" transform="matrix(7.74034771530942 0 0 7.74034771530942 21.4662646511357 10.2552393858642)" fill="#737373" fill-rule="evenodd" stroke-opacity="0" stroke="#000000" stroke-width="0" stroke-linecap="square" stroke-linejoin="bevel" d="M3.5457 8.64378C3.80348 7.18104 4.20531 5.74012 4.85232 4.84119C5.22285 4.22629 6.23021 3.45876 7.16402 3.33355C7.17226 2.49333 7.55253 0.255978 8.29475 0C8.37751 0.231228 8.7191 1.06367 8.65395 2.6621C7.82224 3.35157 5.08641 5.6842 4.64466 8.68665C3.97407 9.84405 0.649006 13.8893 0 14.1393C0.532094 13.0497 2.95954 9.28673 3.5457 8.64378Z" sodipodi:nodetypes="cccccccc"/><path id="shape031" transform="matrix(0.00695865294225525 8.80900138884693 -8.80900138884693 0.00695865294225525 195.107769103185 184.955712174634)" fill="#737373" fill-rule="evenodd" stroke-opacity="0" stroke="#000000" stroke-width="0" stroke-linecap="square" stroke-linejoin="bevel" d="M1.46505 16.3043C0.734718 15.9336 0.18826 14.9918 0.00949679 14.2996C-0.0191982 13.77 0.0269582 10.0808 0.0199012 7.71647C0.0129921 7.05008 0.0781806 2.47702 0.0766365 1.77348C0.160131 1.25424 0.610363 0.336279 1.48018 0C1.23528 2.43915 0.798275 2.64153 0.804293 7.99536C0.762164 13.7635 1.26854 14.8919 1.46505 16.3043Z" sodipodi:nodetypes="ccccccc"/><path id="shape2" transform="matrix(7.7470446539031 0 0 7.7470446539031 134.697512584412 36.6546644441722)" fill="#404040" fill-rule="evenodd" stroke-opacity="0" stroke="#000000" stroke-width="0" stroke-linecap="square" stroke-linejoin="bevel" d="M0.232436 18.4676C1.74994 18.4912 4.82533 18.5142 5.97324 18.5011C6.78236 17.3599 7.64757 12.1415 6.69293 8.59277C6.4995 7.10508 6.02593 5.73342 5.31385 4.58009C3.82423 2.16741 1.50215 0.583187 0 0C0.933372 0.840457 4.38423 4.78901 4.42532 7.89427C4.87399 10.5523 1.42399 16.642 0.232436 18.4676Z" sodipodi:nodetypes="ccccccc"/>
</svg>
