<?xml version="1.0" standalone="no"?>
<!DOCTYPE svg PUBLIC "-//W3C//DTD SVG 20010904//EN" "http://www.w3.org/TR/2001/REC-SVG-20010904/DTD/svg10.dtd">
<!-- Created using Krita: https://krita.org -->
<svg xmlns="http://www.w3.org/2000/svg" 
    xmlns:xlink="http://www.w3.org/1999/xlink"
    xmlns:krita="http://krita.org/namespaces/svg/krita"
    xmlns:sodipodi="http://sodipodi.sourceforge.net/DTD/sodipodi-0.dtd"
    width="240pt"
    height="240pt"
    viewBox="0 0 240 240">
<defs/>
<path id="shape0" transform="matrix(9.35078451118498 0 0 9.35078451118498 10.3651231803118 8.81748193734321)" fill="#4c4c4c" fill-rule="evenodd" stroke="#000000" stroke-width="0.72" stroke-linecap="square" stroke-linejoin="bevel" d="M6.60599 11.8141C6.11959 11.8301 5.05486 11.8698 4.20035 11.835C3.89651 11.2995 3.28994 10.6131 3.75035 10.005C4.50151 9.41827 5.3865 8.63392 6.40535 8.145C2.95764 6.11018 4.62417 0.26594 9.12035 1.89322e-06C13.3552 -0.00354689 15.4599 4.98278 12.2554 8.145C13.2456 8.80355 14.1755 9.49401 14.5354 10.005C14.7544 10.6008 14.2556 11.3055 14.1154 11.535C13.1083 11.6454 12.5188 11.7525 11.3704 11.76C11.8221 12.9025 13.1209 16.3026 15.2398 17.5416C16.7174 18.7769 18.2476 20.4794 18.2404 23.73L0.000353845 23.73C-0.0207538 20.9925 0.899535 19.4942 3.55129 17.3083C6.38758 14.9278 6.54863 12.9217 6.60599 11.8141Z" sodipodi:nodetypes="cccccccccccccc"/><path id="shape2" transform="matrix(9.35078451118498 0 0 9.35078451118498 118.620002387617 88.6800017849762)" fill="#404040" fill-rule="evenodd" stroke-opacity="0" stroke="#000000" stroke-width="0" stroke-linecap="square" stroke-linejoin="bevel" d="M0.558242 0C1.47903 0.308288 2.19075 1.17233 2.57946 1.55923C2.83526 1.93874 2.47955 2.19838 2.33563 2.66288C1.99671 2.68104 1.05577 2.89569 0 2.83613C0.699142 2.07648 1.20289 0.695876 0.558242 0Z" sodipodi:nodetypes="ccccc"/><path id="shape01" transform="matrix(9.35078465614803 0 0 9.35078465614803 13.9691799074266 139.680005214047)" fill="#666666" fill-rule="evenodd" stroke-opacity="0" stroke="#000000" stroke-width="0" stroke-linecap="square" stroke-linejoin="bevel" d="M0.00115719 9.35536C-0.0341498 7.66541 0.742321 6.05624 1.80421 5.04984C2.72103 4.08198 5.36875 2.23973 6.16107 0C6.35206 1.15605 5.39738 4.10938 3.82347 5.18022C2.15219 6.20498 0.466547 8.42452 0.00115719 9.35536Z" sodipodi:nodetypes="ccccc"/><path id="shape1" transform="matrix(9.35078465614803 0 0 9.35078465614803 49.9200008178826 87.6000014352268)" fill="#666666" fill-rule="evenodd" stroke-opacity="0" stroke="#000000" stroke-width="0" stroke-linecap="square" stroke-linejoin="bevel" d="M0 1.69398C0.597005 1.72662 1.26806 1.7215 1.81204 1.67989C1.97488 1.1544 2.24859 0.481648 2.32922 0C1.66151 0.43052 0.643967 1.12041 0 1.69398Z" sodipodi:nodetypes="cccc"/><path id="shape21" transform="matrix(9.35078465614803 0 0 9.35078465614803 56.5095795623123 12.359805880592)" fill="#666666" fill-rule="evenodd" stroke-opacity="0" stroke="#000000" stroke-width="0" stroke-linecap="square" stroke-linejoin="bevel" d="M0.283444 5.96102C-0.277552 4.7249 0.0296026 2.74804 0.893018 1.75175C1.78852 0.493646 3.12363 -0.0037103 4.51197 2.08232e-05C3.95126 0.287289 2.49855 1.20429 1.71054 2.36618C0.923928 3.4612 0.441737 5.17686 0.283444 5.96102Z" sodipodi:nodetypes="ccccc"/><path id="shape11" transform="matrix(9.36702294984793 0.0178010631382206 -0.0178010631382206 9.36702294984793 75.6040416050324 119.903632990299)" fill="#404040" fill-rule="evenodd" stroke-opacity="0" stroke="#000000" stroke-width="0" stroke-linecap="square" stroke-linejoin="bevel" d="M0 0.0102879C0.73683 0.0300475 2.77247 -0.0103184 4.04141 0.00260761C4.20411 0.481393 4.89525 2.07865 5.26364 2.73541C6.26769 4.25401 7.10458 5.37874 8.10105 5.9968C6.16372 6.08067 1.22678 3.33072 0.194909 0.831051C0.0186484 0.507731 0.0280837 0.411419 0 0.0102879Z" sodipodi:nodetypes="cccccc"/><path id="shape3" transform="matrix(9.36702276154295 0.0178010627803663 -0.0178010627803663 9.36702276154295 94.8112120997299 22.5651756943215)" fill="#404040" fill-rule="evenodd" stroke-opacity="0" stroke="#000000" stroke-width="0" stroke-linecap="square" stroke-linejoin="bevel" d="M0 6.48662C0.383887 6.47896 2.25461 6.40557 2.96199 6.38134C3.62467 5.86995 4.37453 4.60364 4.42519 3.48841C4.41226 2.14389 4.27873 1.29226 3.07982 0C3.26041 1.30598 3.83635 2.55699 2.91822 4.23436C2.37447 5.70143 0.648082 6.21629 0 6.48662Z" sodipodi:nodetypes="cccccc"/>
</svg>
