<?xml version="1.0" standalone="no"?>
<!DOCTYPE svg PUBLIC "-//W3C//DTD SVG 20010904//EN" "http://www.w3.org/TR/2001/REC-SVG-20010904/DTD/svg10.dtd">
<!-- Created using Krita: https://krita.org -->
<svg xmlns="http://www.w3.org/2000/svg" 
    xmlns:xlink="http://www.w3.org/1999/xlink"
    xmlns:krita="http://krita.org/namespaces/svg/krita"
    xmlns:sodipodi="http://sodipodi.sourceforge.net/DTD/sodipodi-0.dtd"
    width="240pt"
    height="240pt"
    viewBox="0 0 240 240">
<defs/>
<path id="shape01" transform="matrix(7.71464992378181 0 0 7.71464992378181 14.1580022083572 11.0548087635577)" fill="#595959" fill-rule="evenodd" stroke="#000000" stroke-width="0.72" stroke-linecap="square" stroke-linejoin="miter" stroke-miterlimit="2" d="M6.84143 22.2665C6.71183 21.4372 2.73464 12.0556 2.31143 11.2865C-0.978237 10.5162 -0.303838 7.05359 1.53628 6.0737C3.2502 4.86664 6.39731 6.94265 5.12131 9.89208C5.86456 10.634 8.01334 13.075 8.36693 13.4559C8.4097 12.8169 8.59742 6.38648 8.57906 5.4373C5.35861 3.78204 7.1043 0.106796 9.72457 0.00672343C11.9652 -0.146495 13.358 2.34181 11.6338 5.14032C12.2917 7.21634 13.5346 11.2878 13.6814 11.7965C13.9939 11.0331 14.9932 8.10323 16.2795 5.16153C13.5172 2.07439 16.2578 -0.183653 18.422 0.0491499C20.4488 0.0965894 22.0515 3.22947 19.2281 5.39488C19.3675 7.72374 19.1423 12.9088 19.122 13.3923C19.5415 13.0527 22.2125 10.4927 22.4313 10.2739C21.0523 6.83216 23.9031 5.47903 25.9611 6.11242C27.7512 6.58928 28.7531 10.2659 25.2753 11.2518C24.953 12.2076 20.9661 22.0373 20.7314 22.2665" sodipodi:nodetypes="ccccccccccccccccc"/><path id="shape02" transform="matrix(7.71465025332885 0 0 7.71465025332885 43.9297979338502 62.14389555012)" fill="#404040" fill-rule="evenodd" stroke-opacity="0" stroke="#000000" stroke-width="0" stroke-linecap="square" stroke-linejoin="bevel" d="M0.263564 0C0.448656 0.105709 0.997512 0.514018 1.20879 1.66274C1.23131 2.42886 1.13052 2.73038 0.826375 3.36665C1.18712 3.68973 2.05386 4.60865 2.29984 4.91606C1.81428 4.71551 0.178732 3.41818 0 3.2467C0.398864 2.42284 0.361907 1.01462 0.263564 0Z" sodipodi:nodetypes="cccccc"/><path id="shape0" transform="matrix(7.71464923243745 0 0 7.71464923243745 39.9604952226303 182.914945407621)" fill="#595959" fill-rule="evenodd" stroke="#000000" stroke-width="0.72" stroke-linecap="square" stroke-linejoin="bevel" d="M3.27804 0L17.588 0.09C20.0679 0.673461 20.4948 3.00798 20.438 5.73L0.0380395 5.73C-0.197996 2.86953 0.638399 0.783593 3.27804 0Z" sodipodi:nodetypes="ccccc"/><path id="shape04" transform="matrix(7.71464970127369 0 0 7.71464970127369 124.680008984981 65.2279774254075)" fill="#404040" fill-rule="evenodd" stroke-opacity="0" stroke="#000000" stroke-width="0" stroke-linecap="square" stroke-linejoin="bevel" d="M0 14.9394C2.07566 14.9744 4.34332 15.0182 6.13885 14.9864C6.61919 14.339 10.0154 5.76056 10.6516 3.96975C11.5681 3.89034 12.5995 3.16376 12.8299 2.18241C12.9852 1.27035 12.9035 0.685805 12.3664 0C12.3224 1.42967 11.7208 2.81683 10.1415 3.24998C8.68575 6.79972 4.64702 12.6818 0 14.9394Z" sodipodi:nodetypes="ccccccc"/><path id="shape011" transform="matrix(0.00609416975602045 7.71464682750146 -7.71464682750146 0.00609416975602045 190.756278396291 185.738991112251)" fill="#737373" fill-rule="evenodd" stroke-opacity="0" stroke="#000000" stroke-width="0" stroke-linecap="square" stroke-linejoin="bevel" d="M1.68929 18.55C0.867 18.1326 0.231507 17.1143 0.0138491 16.2827C-0.0279982 15.0169 0.0390106 9.46771 0.0319196 8.79085C0.0362409 8.14223 0.0226887 2.27492 0.0979973 1.96516C0.163152 1.61802 0.641096 0.338406 1.7098 0C1.43406 2.74626 0.909903 3.16143 0.916679 9.18937C0.869245 15.6838 1.46804 16.9597 1.68929 18.55Z" sodipodi:nodetypes="ccccccc"/><path id="shape03" transform="matrix(7.71464990714795 0 0 7.71464990714795 153.322378342469 15.6071743553394)" fill="#404040" fill-rule="evenodd" stroke-opacity="0" stroke="#000000" stroke-width="0" stroke-linecap="square" stroke-linejoin="bevel" d="M0.837813 8.54139C0.889994 7.62511 0.880004 5.62929 0.81633 4.62301C1.47552 4.17891 2.27964 3.36714 2.35877 2.26424C2.30596 1.08069 1.89972 0.303688 1.02686 0C1.3071 0.703618 0.813977 3.08272 0 3.73364C0.119208 4.88709 0.539973 7.30559 0.837813 8.54139Z" sodipodi:nodetypes="cccccc"/><path id="shape05" transform="matrix(-7.71464988931042 0 0 -7.71464988931042 107.137728268282 68.7067604443478)" fill="#404040" fill-rule="evenodd" stroke-opacity="0" stroke="#000000" stroke-width="0" stroke-linecap="square" stroke-linejoin="bevel" d="M0.866263 6.71969C0.365768 6.38365 0.0332212 5.65061 0.00267088 4.89369C-0.0404651 3.83232 0.447987 2.9058 0.810408 2.40603C0.598576 1.61487 0.250923 0.723399 0.0886013 0C0.614663 0.863191 1.7288 2.8659 1.81023 3.40829C0.935503 4.51467 0.894915 6.3533 0.866263 6.71969Z" sodipodi:nodetypes="cccccc"/><path id="shape06" transform="matrix(7.71465007298993 0 0 7.71465007298993 16.9699609916666 57.9989723420926)" fill="#737373" fill-rule="evenodd" stroke-opacity="0" stroke="#000000" stroke-width="0" stroke-linecap="square" stroke-linejoin="bevel" d="M2.31284 1.00706e-05C1.8419 0.288825 1.08289 1.08115 0.830264 1.60107C0.578105 1.98564 0.346144 2.92862 0.125433 3.42695C-0.136627 2.62555 0.0482247 1.80637 0.34679 1.28487C0.446761 1.05219 1.28072 -0.00376013 2.31284 1.00706e-05Z" sodipodi:nodetypes="ccccc"/><path id="shape07" transform="matrix(7.71465009027292 0 0 7.71465009027292 69.7089047166824 13.9597504150105)" fill="#737373" fill-rule="evenodd" stroke-opacity="0" stroke="#000000" stroke-width="0" stroke-linecap="square" stroke-linejoin="bevel" d="M2.32444 0C1.85344 0.288944 1.15852 1.15131 0.954096 1.55876C0.68067 1.82484 0.394197 2.95899 0.173486 3.45732C0.0116829 3.07821 -0.210145 2.28966 0.422608 1.19092C0.812759 0.667496 1.34022 0.116278 2.32444 0Z" sodipodi:nodetypes="ccccc"/><path id="shape08" transform="matrix(7.71465009027292 0 0 7.71465009027292 133.612365065895 14.2150504816535)" fill="#737373" fill-rule="evenodd" stroke-opacity="0" stroke="#000000" stroke-width="0" stroke-linecap="square" stroke-linejoin="bevel" d="M2.36584 0C1.89484 0.288943 1.1695 1.07579 0.965066 1.48324C0.691643 1.74932 0.455496 2.7584 0.234785 3.25673C-0.253704 2.07659 0.142989 1.37019 0.325011 1.08271C0.645671 0.601293 1.38607 0.0406801 2.36584 0Z" sodipodi:nodetypes="ccccc"/><path id="shape09" transform="matrix(7.71465009027292 0 0 7.71465009027292 187.216546941262 59.9184224431446)" fill="#737373" fill-rule="evenodd" stroke-opacity="0" stroke="#000000" stroke-width="0" stroke-linecap="square" stroke-linejoin="bevel" d="M2.31332 0.000609185C1.84232 0.289552 0.955822 1.1656 0.751399 1.57305C0.477973 1.83913 0.402977 2.90509 0.182266 3.40342C-0.077314 2.59867 -0.0604454 1.68645 0.23812 1.16495C0.541598 0.65346 1.31637 -0.0231579 2.31332 0.000609185Z" sodipodi:nodetypes="ccccc"/>
</svg>
