<?xml version="1.0" standalone="no"?>
<!DOCTYPE svg PUBLIC "-//W3C//DTD SVG 20010904//EN" "http://www.w3.org/TR/2001/REC-SVG-20010904/DTD/svg10.dtd">
<!-- Created using Krita: https://krita.org -->
<svg xmlns="http://www.w3.org/2000/svg" 
    xmlns:xlink="http://www.w3.org/1999/xlink"
    xmlns:krita="http://krita.org/namespaces/svg/krita"
    xmlns:sodipodi="http://sodipodi.sourceforge.net/DTD/sodipodi-0.dtd"
    width="240pt"
    height="240pt"
    viewBox="0 0 240 240">
<defs/>
<path id="shape0" transform="matrix(8.21109571915075 0 0 8.21109571915075 34.465518883585 180.136028384923)" fill="#595959" fill-rule="evenodd" stroke="#000000" stroke-width="0.72" stroke-linecap="square" stroke-linejoin="bevel" d="M3.27804 0L17.588 0.09C20.0679 0.673461 20.4948 3.00798 20.438 5.73L0.0380395 5.73C-0.197996 2.86953 0.638399 0.783593 3.27804 0Z" sodipodi:nodetypes="ccccc"/><path id="shape1" transform="matrix(8.21109571915075 0 0 8.21109571915075 49.3847718499186 10.905360252726)" fill="#595959" fill-rule="evenodd" stroke="#000000" stroke-width="0.72" stroke-linecap="square" stroke-linejoin="miter" stroke-miterlimit="2" d="M2.52654 8.98681C1.80594 8.6124 0.881311 8.20123 0.381076 6.93C-0.0575158 5.81542 -0.117517 4.11542 0.201076 1.83C0.830806 1.26638 2.42135 0.953615 3.53108 0.989997C3.85057 1.41446 4.09057 2.54446 4.25108 4.38C5.2255 4.49121 5.8155 4.49121 6.02108 4.38C6.08944 3.73318 6.18924 1.28412 6.29108 0.389997C7.20292 -0.17413 9.47159 -0.110788 10.9411 0.479997C11.0672 1.13341 10.9725 3.36809 11.1511 4.35C11.6753 4.54636 12.2653 4.52636 12.9211 4.29C13.1311 2.81931 13.4111 1.73931 13.7611 1.05C14.646 0.736024 16.2989 1.27125 17.1211 1.89C16.9933 2.98903 17.2486 5.44588 16.7815 6.6722C15.4924 9.26019 14.865 8.62564 14.2939 8.77464" sodipodi:nodetypes="cccccccccccccc"/><path id="shape2" transform="matrix(8.21109571915075 0 0 8.21109571915075 58.4258217005549 82.8345391422621)" fill="#595959" fill-rule="evenodd" stroke="#000000" stroke-width="0.72" stroke-linecap="square" stroke-linejoin="bevel" d="M1.53 0.15L13.17 0L14.4 11.82L0 11.82Z" sodipodi:nodetypes="ccccc"/><path id="shape3" transform="matrix(8.21109571915075 0 0 8.21109571915075 113.203784634172 86.0832877943621)" fill="#404040" fill-rule="evenodd" stroke-opacity="0" stroke="#000000" stroke-width="0" stroke-linecap="square" stroke-linejoin="bevel" d="M0 0.0453262C1.19117 0.0440175 4.83339 -0.0159409 6.17297 0.00409249C6.61139 3.02136 7.31237 10.3755 7.31918 11.0627C6.63811 11.0403 5.75763 11.0516 5.05976 11.0517C5.28395 9.23308 3.8772 0.977248 0 0.0453262Z" sodipodi:nodetypes="ccccc"/><path id="shape4" transform="matrix(8.21109571915075 0 0 8.21109571915075 155.444949619293 23.8577418144319)" fill="#404040" fill-rule="evenodd" stroke-opacity="0" stroke="#000000" stroke-width="0" stroke-linecap="square" stroke-linejoin="bevel" d="M0 6.82871C0.820283 6.85808 1.77726 6.82809 2.20422 6.74775C2.86075 6.42126 3.51174 5.01828 3.59157 4.72269C3.93649 3.97381 3.77225 1.41063 3.81794 0.47357C3.37402 0.242437 3.15502 0.099604 2.77713 0C2.55656 1.81419 1.87057 5.4762 0 6.82871Z" sodipodi:nodetypes="cccccc"/><path id="shape01" transform="matrix(8.21109602548664 0 0 8.21109602548663 52.5505814216638 22.7311451661919)" fill="#737373" fill-rule="evenodd" stroke-opacity="0" stroke="#000000" stroke-width="0" stroke-linecap="square" stroke-linejoin="bevel" d="M0.468661 5.6559C-0.128114 4.76981 -0.0692362 1.48079 0.174274 0.566694C0.779872 0.223197 1.03455 0.143703 1.88539 0C1.27253 1.17152 0.775038 3.99192 0.468661 5.6559Z" sodipodi:nodetypes="cccc"/><path id="shape011" transform="matrix(8.21109572138818 0 0 8.21109572138818 102.528805706971 13.8220415704357)" fill="#737373" fill-rule="evenodd" stroke-opacity="0" stroke="#000000" stroke-width="0" stroke-linecap="square" stroke-linejoin="bevel" d="M0 2.77302C0.139192 1.42457 0.0511009 0.924616 0.163928 0.262063C0.765863 -0.0293397 1.54148 -0.00394417 2.06862 0.0044615C0.967855 0.603225 0.730641 1.76665 0 2.77302Z" sodipodi:nodetypes="cccc"/><path id="shape02" transform="matrix(8.21109572138818 0 0 8.21109572138818 159.524025275594 21.4926864117018)" fill="#737373" fill-rule="evenodd" stroke-opacity="0" stroke="#000000" stroke-width="0" stroke-linecap="square" stroke-linejoin="bevel" d="M0 2.32561C0.0861595 1.54019 0.372102 0.594675 0.596132 0.0441124C0.667243 -0.0297689 1.24385 -0.0221267 1.79208 0.154507C0.818586 1.03297 0.762461 1.13908 0 2.32561Z" sodipodi:nodetypes="cccc"/><path id="shape03" transform="matrix(0.00648633653815875 8.21109315945437 -8.21109315945437 0.00648633653815875 194.902439237009 183.099068965568)" fill="#737373" fill-rule="evenodd" stroke-opacity="0" stroke="#000000" stroke-width="0" stroke-linecap="square" stroke-linejoin="bevel" d="M1.6945 18.5423C0.87221 18.1249 0.211331 17.0668 0.0100602 16.2874C-0.0222478 15.6911 0.0342966 11.5024 0.0263511 8.8404C0.0185721 8.0901 0.0907196 2.81525 0.0889811 2.02312C0.182988 1.4385 0.703683 0.37862 1.68302 0C1.40728 2.74626 0.915113 3.15379 0.921889 9.18173C0.874455 15.6761 1.47325 16.952 1.6945 18.5423Z" sodipodi:nodetypes="ccccccc"/>
</svg>
