<?xml version="1.0" standalone="no"?>
<!DOCTYPE svg PUBLIC "-//W3C//DTD SVG 20010904//EN" "http://www.w3.org/TR/2001/REC-SVG-20010904/DTD/svg10.dtd">
<!-- Created using Krita: https://krita.org -->
<svg xmlns="http://www.w3.org/2000/svg" 
    xmlns:xlink="http://www.w3.org/1999/xlink"
    xmlns:krita="http://krita.org/namespaces/svg/krita"
    xmlns:sodipodi="http://sodipodi.sourceforge.net/DTD/sodipodi-0.dtd"
    width="240pt"
    height="240pt"
    viewBox="0 0 240 240">
<defs/>
<path id="shape0" transform="matrix(6.85859939812223 0 0 6.85859939812222 41.9161064276055 177.608120163826)" fill="#ffffff" fill-rule="evenodd" stroke="#000000" stroke-width="0.72" stroke-linecap="square" stroke-linejoin="bevel" d="M3.27804 0L17.588 0.09C20.0679 0.673461 20.4948 3.00798 20.438 5.73L0.0380395 5.73C-0.197996 2.86953 0.638399 0.783593 3.27804 0Z" sodipodi:nodetypes="ccccc"/><path id="shape01" transform="matrix(6.85859965399979 0 0 6.85859965399978 19.3087072169985 17.2473569437342)" fill="#ffffff" fill-rule="evenodd" stroke="#000000" stroke-width="0.72" stroke-linecap="square" stroke-linejoin="miter" stroke-miterlimit="2" d="M6.37676 23.3835L6.13477 23.1937L5.8947 23.002L5.65674 22.8083L5.42107 22.6127L5.18788 22.4151L4.95736 22.2155L4.72968 22.014L4.50505 21.8107L4.28363 21.6054L4.06563 21.3983L3.85122 21.1893L3.64059 20.9785L3.43392 20.7659L3.23141 20.5515L3.03323 20.3353L2.83958 20.1174L2.65064 19.8977L2.46659 19.6762L2.28762 19.4531L2.11393 19.2282L1.94568 19.0017L1.78307 18.7735L1.62629 18.5437L1.47552 18.3123L1.33094 18.0792L1.19274 17.8446L1.06112 17.6083L0.936246 17.3705L0.818313 17.1312L0.707506 16.8903L0.60401 16.648L0.508011 16.4041L0.419696 16.1588L0.339249 15.912L0.266857 15.6638L0.202706 15.4142L0.146982 15.1631L0.0998697 14.9107L0.0615558 14.6569L0.0322261 14.4017L0.0120663 14.1452L0.0012623 13.8874L0 13.6283L0.00846524 13.3679L0.0268439 13.1062L0.0553217 12.8433L0.0940847 12.5791L0.143319 12.3137L0.203209 12.0472L0.273943 11.7794L0.355705 11.5105L0.448681 11.2404L0.553058 10.9692L0.669021 10.6969L0.796755 10.4235L0.960621 10.191L1.13089 9.96726L1.30734 9.75229L1.48977 9.54605L1.67795 9.34853L1.87169 9.1597L2.07075 8.97955L2.27494 8.80806L2.48404 8.64522L2.69783 8.49101L2.9161 8.34541L3.13863 8.20841L3.36523 8.07998L3.59566 7.96013L3.82972 7.84881L4.06719 7.74603L4.30787 7.65176L4.55153 7.56599L4.79797 7.48869L5.04696 7.41986L5.29831 7.35947L5.55179 7.30752L5.80719 7.26398L6.0643 7.22883L6.32291 7.20206L6.58279 7.18366L6.84375 7.1736L7.10556 7.17187L7.36801 7.17846L7.63089 7.19334L7.89398 7.2165L8.15708 7.24793L8.41997 7.2876L8.68243 7.3355L8.94425 7.39161L9.20522 7.45592L9.46513 7.52841L9.72376 7.60906L9.9809 7.69785L10.2363 7.79478L10.4898 7.89982L10.7412 8.01296L10.9903 8.13417L11.2368 8.26345L11.2602 8.14275L11.2818 7.91509L11.3018 7.61049L11.3205 7.25894L11.3381 6.89046L11.3549 6.53505L11.371 6.22271L11.3868 5.98345L11.2316 5.97012L10.9889 5.94122L10.6864 5.90447L10.352 5.8676L10.0137 5.83832L9.69933 5.82437L9.43676 5.83345L9.43198 5.719L9.42837 5.53996L9.42582 5.3074L9.42423 5.0324L9.4235 4.72602L9.42354 4.39933L9.42423 4.0634L9.42549 3.72928L9.42722 3.40806L9.4293 3.1108L9.43165 2.84857L9.43417 2.63243L9.43676 2.47345L9.59817 2.46199L9.822 2.445L10.0921 2.42464L10.3922 2.40309L10.7061 2.38251L11.0178 2.36509L11.3109 2.35299L11.5693 2.34839L11.7768 2.35345L11.7939 2.09787L11.8166 1.80618L11.8429 1.49221L11.8706 1.16984L11.8979 0.852925L11.9227 0.555315L11.9429 0.290872L11.9568 0.0734515L12.1005 0.0595526L12.2965 0.046893L12.5356 0.0355561L12.8089 0.0256258L13.1072 0.0171856L13.4215 0.0103193L13.7429 0.00511048L14.0622 0.00164282L14.3704 0L14.6584 0.000265676L14.9174 0.00252352L15.1381 0.0068572L15.3115 0.0133504L15.4287 0.0220867L15.4277 0.141064L15.4224 0.351188L15.4136 0.629691L15.4024 0.953803L15.3898 1.30076L15.3766 1.64778L15.3639 1.97211L15.3527 2.25097L15.3438 2.46161L15.4652 2.46239L15.6775 2.46053L15.9576 2.45684L16.2826 2.45218L16.6295 2.44738L16.9753 2.44327L17.2972 2.44068L17.572 2.44047L17.7768 2.44345L17.7842 2.58728L17.7875 2.77274L17.787 2.99349L17.7832 3.24321L17.7765 3.51556L17.7674 3.80422L17.7562 4.10285L17.7433 4.40511L17.7293 4.70469L17.7145 4.99524L17.6993 5.27043L17.6843 5.52394L17.6697 5.74943L17.6561 5.94057L17.478 5.94758L17.2094 5.96985L16.8813 5.99984L16.525 6.03004L16.1716 6.05292L15.8523 6.06096L15.5984 6.04664L15.6096 6.26157L15.6251 6.51367L15.6453 6.79144L15.6706 7.0834L15.7014 7.37804L15.7381 7.66386L15.7809 7.92937L15.8304 8.16306L15.8868 8.35345L16.0329 8.28299L16.1902 8.21205L16.3581 8.1411L16.5362 8.07056L16.7238 8.00089L16.9207 7.93252L17.1262 7.86592L17.3398 7.8015L17.5612 7.73973L17.7898 7.68105L18.025 7.62589L18.2665 7.57471L18.5138 7.52794L18.7662 7.48604L19.0235 7.44944L19.285 7.41859L19.5502 7.39394L19.8188 7.37592L20.0901 7.36498L20.3638 7.36158L20.6393 7.36614L20.9161 7.37912L21.1938 7.40095L21.4718 7.43209L21.7496 7.47298L22.0269 7.52405L22.303 7.58576L22.5776 7.65855L22.85 7.74287L23.1199 7.83915L23.3867 7.94784L23.6499 8.06939L23.9091 8.20423L24.1638 8.35282L24.4135 8.5156L24.6576 8.69301L24.8957 8.8855L25.1273 9.0935L25.352 9.31747L25.5692 9.55785L25.7784 9.81508L25.9792 10.0896L26.171 10.3819L26.3535 10.6923L26.484 10.9625L26.6011 11.2311L26.7053 11.4981L26.7966 11.7635L26.8754 12.0274L26.9419 12.2898L26.9964 12.5507L27.0391 12.8101L27.0703 13.0681L27.0903 13.3246L27.0992 13.5797L27.0974 13.8334L27.0852 14.0857L27.0626 14.3366L27.0302 14.5863L26.988 14.8345L26.9363 15.0815L26.8754 15.3272L26.8056 15.5716L26.7271 15.8148L26.6401 16.0567L26.545 16.2974L26.442 16.5369L26.3313 16.7753L26.2131 17.0125L26.0879 17.2485L25.9557 17.4835L25.8169 17.7173L25.6717 17.9501L25.5203 18.1818L25.3631 18.4124L25.2003 18.6421L25.0321 18.8707L24.8589 19.0983L24.6808 19.325L24.498 19.5507L24.311 19.7755L24.1199 19.9994L23.9249 20.2224L23.7264 20.4446L23.5246 20.6658L23.3198 20.8863L23.1121 21.1059L22.9019 21.3247L22.6894 21.5428L22.4749 21.7601L22.2586 21.9766L22.0409 22.1925L21.8218 22.4076L21.6018 22.6221L21.381 22.8359L21.1597 23.049L20.9382 23.2615L20.7168 23.4735L6.37676 23.3835M10.6981 18.6897L10.685 18.3664L10.6754 18.0556L10.6691 17.7565L10.6654 17.4684L10.664 17.1903L10.6644 16.9215L10.6661 16.6611L10.6687 16.4084L10.6717 16.1626L10.6747 15.9228L10.6771 15.6881L10.6785 15.4579L10.6785 15.2313L10.6766 15.0075L10.6723 14.7856L10.6652 14.5649L10.6548 14.3445L10.6406 14.1236L10.6222 13.9015L10.5991 13.6772L10.5709 13.45L10.2283 13.2775L9.89013 13.123L9.55723 12.9871L9.23062 12.8701L8.9113 12.7727L8.60026 12.6952L8.2985 12.6382L8.00699 12.6021L7.72675 12.5875L7.45874 12.5948L7.20398 12.6245L6.96345 12.6771L6.73815 12.7531L6.52906 12.8529L6.33718 12.9771L6.16349 13.1262L6.009 13.3005L5.8747 13.5007L5.76156 13.7271L5.6706 13.9804L5.7449 14.253L5.8456 14.5346L5.97026 14.8232L6.11644 15.1168L6.28171 15.4132L6.46362 15.7106L6.65975 16.0068L6.86764 16.2998L7.08488 16.5876L7.30901 16.8681L7.5376 17.1394L7.76821 17.3994L7.99841 17.6461L8.22576 17.8773L8.44782 18.0912L8.66215 18.2857L8.86632 18.4587L9.05789 18.6082L9.23442 18.7321L9.4943 18.7559L9.79439 18.756L10.1109 18.7399L10.4201 18.7152L10.6981 18.6897M16.2547 18.4588L16.2679 18.1355L16.2774 17.8247L16.2838 17.5256L16.2874 17.2374L16.2888 16.9594L16.2884 16.6906L16.2867 16.4302L16.2841 16.1775L16.2811 15.9317L16.2782 15.6918L16.2757 15.4572L16.2743 15.227L16.2743 15.0004L16.2762 14.7766L16.2805 14.5547L16.2877 14.3339L16.2981 14.1135L16.3123 13.8927L16.3307 13.6705L16.3538 13.4463L16.382 13.2191L16.7245 13.0466L17.0627 12.8921L17.3956 12.7562L17.7222 12.6392L18.0415 12.5418L18.3526 12.4643L18.6543 12.4073L18.9459 12.3712L19.2261 12.3566L19.4941 12.3639L19.7489 12.3936L19.9894 12.4462L20.2147 12.5222L20.4238 12.622L20.6157 12.7462L20.7894 12.8952L20.9438 13.0696L21.0781 13.2698L21.1913 13.4962L21.2822 13.7495L21.2079 14.0221L21.1072 14.3037L20.9826 14.5923L20.8364 14.8858L20.6711 15.1823L20.4892 15.4796L20.2931 15.7758L20.0852 16.0689L19.868 16.3567L19.6438 16.6372L19.4152 16.9085L19.1846 17.1685L18.9544 17.4151L18.7271 17.6464L18.505 17.8603L18.2907 18.0548L18.0865 18.2277L17.895 18.3772L17.7184 18.5012L17.4585 18.525L17.1585 18.525L16.8419 18.5089L16.5328 18.4843L16.2547 18.4588" sodipodi:nodetypes="cccccccccccccccccccccccccccccccccccccccccccccccccccccccccccccccccccccccccccccccccccccccccccccccccccccccccccccccccccccccccccccccccccccccccccccccccccccccccccccccccccccccccccccccccccccccccccccccccccccccccccccccccccccccccccccccccccccccccccccccccccccccccccccccccccccccccccccccccccccccccccccccccccccccccccccccccccccccccccccccccccccccccccccccccccccccccccccccccccccccccccccccccccccccccccccccccccccccccccccccccccccccccccccccccccccccccccccccccccccc"/><path id="shape1" transform="matrix(6.85859965399979 0 0 6.85859965399978 146.583238380316 83.4526068729755)" fill="#f2f2f2" fill-rule="evenodd" stroke-opacity="0" stroke="#000000" stroke-width="0" stroke-linecap="square" stroke-linejoin="bevel" d="M0 13.4481C0.538053 13.442 1.24949 13.4761 2.05371 13.4295C2.87029 12.6401 7.32536 8.42802 7.80038 6.08692C8.73091 3.74493 7.84034 1.24294 6.5874 0C6.79929 0.67285 7.7217 3.9965 6.37526 6.57609C4.58464 8.46986 0.649352 12.7362 0 13.4481Z" sodipodi:nodetypes="cccccc"/>
</svg>
