<?xml version="1.0" standalone="no"?>
<!DOCTYPE svg PUBLIC "-//W3C//DTD SVG 20010904//EN" "http://www.w3.org/TR/2001/REC-SVG-20010904/DTD/svg10.dtd">
<!-- Created using Krita: https://krita.org -->
<svg xmlns="http://www.w3.org/2000/svg" 
    xmlns:xlink="http://www.w3.org/1999/xlink"
    xmlns:krita="http://krita.org/namespaces/svg/krita"
    xmlns:sodipodi="http://sodipodi.sourceforge.net/DTD/sodipodi-0.dtd"
    width="240pt"
    height="240pt"
    viewBox="0 0 240 240">
<defs/>
<path id="shape0" transform="matrix(9.36702305423176 0.0178010633365913 -0.0178010633365913 9.36702305423176 9.62402033493453 8.81503542734345)" fill="#ffffff" fill-rule="evenodd" stroke="#000000" stroke-width="0.72" stroke-linecap="square" stroke-linejoin="bevel" d="M6.60599 11.8141C6.11959 11.8301 5.05486 11.8698 4.20035 11.835C3.89651 11.2995 3.28994 10.6131 3.75035 10.005C4.50151 9.41827 5.3865 8.63392 6.40535 8.145C2.95764 6.11018 4.62417 0.26594 9.12035 1.89322e-06C13.3552 -0.00354689 15.4599 4.98278 12.2554 8.145C13.2456 8.80355 14.1755 9.49401 14.5354 10.005C14.7544 10.6008 14.2556 11.3055 14.1154 11.535C13.1083 11.6454 12.5188 11.7525 11.3704 11.76C11.8221 12.9025 13.1132 16.15 15.2398 17.5416C16.7174 18.7769 18.2476 20.4794 18.2404 23.73L0.000353845 23.73C-0.0207538 20.9925 0.899535 19.4942 3.55129 17.3083C6.38758 14.9278 6.54863 12.9217 6.60599 11.8141Z" sodipodi:nodetypes="cccccccccccccc"/><path id="shape1" transform="matrix(9.36702305423176 0.0178010633365913 -0.0178010633365913 9.36702305423176 74.9401853567196 119.903680814788)" fill="#f2f2f2" fill-rule="evenodd" stroke-opacity="0" stroke="#000000" stroke-width="0" stroke-linecap="square" stroke-linejoin="bevel" d="M0 0.0102828C0.73683 0.0300424 2.76962 -0.0103181 4.03856 0.00260791C4.46487 1.0169 4.29866 0.918046 5.27696 2.78663C6.40005 4.49047 6.59502 4.92577 8.33972 6.25657C6.40239 6.34044 1.43111 3.61734 0.399242 1.11767C0.159347 0.676705 0.0755875 0.417917 0 0.0102828Z" sodipodi:nodetypes="cccccc"/><path id="shape2" transform="matrix(9.36702305423176 0.0178010633365913 -0.0178010633365913 9.36702305423176 118.130308236748 89.08983677833)" fill="#f2f2f2" fill-rule="evenodd" stroke-opacity="0" stroke="#000000" stroke-width="0" stroke-linecap="square" stroke-linejoin="bevel" d="M0.57112 0C1.06879 0.186166 1.98757 0.990333 2.56615 1.54633C2.71591 1.85611 2.46898 2.38271 2.27356 2.6294C1.54349 2.75004 0.822742 2.83986 0 2.82589C0.656716 2.0026 1.21577 0.695876 0.57112 0Z" sodipodi:nodetypes="ccccc"/><path id="shape3" transform="matrix(9.36702305423176 0.0178010633365913 -0.0178010633365913 9.36702305423176 95.2142457223331 23.4666267642631)" fill="#f2f2f2" fill-rule="evenodd" stroke-opacity="0" stroke="#000000" stroke-width="0" stroke-linecap="square" stroke-linejoin="bevel" d="M0 6.41755C0.498215 6.37826 2.0831 6.38912 2.85667 6.32885C3.51935 5.81746 4.24812 4.53967 4.29878 3.42444C4.28585 2.07992 4.19728 1.29226 2.99837 0C3.17896 1.30598 3.79315 2.46084 2.87502 4.13821C2.33127 5.60528 0.510657 6.13521 0 6.41755Z" sodipodi:nodetypes="cccccc"/>
</svg>
