<?xml version="1.0" standalone="no"?>
<!DOCTYPE svg PUBLIC "-//W3C//DTD SVG 20010904//EN" "http://www.w3.org/TR/2001/REC-SVG-20010904/DTD/svg10.dtd">
<!-- Created using Krita: https://krita.org -->
<svg xmlns="http://www.w3.org/2000/svg" 
    xmlns:xlink="http://www.w3.org/1999/xlink"
    xmlns:krita="http://krita.org/namespaces/svg/krita"
    xmlns:sodipodi="http://sodipodi.sourceforge.net/DTD/sodipodi-0.dtd"
    width="240pt"
    height="240pt"
    viewBox="0 0 240 240">
<defs/>
<path id="shape0" transform="matrix(7.78401403755432 0 0 7.78401403755432 5.66189140655127 11.7522829770392)" fill="#ffffff" fill-rule="evenodd" stroke="#000000" stroke-width="0.72" stroke-linecap="square" stroke-linejoin="miter" stroke-miterlimit="2" d="M5.87606 22.783C6.66176 19.7217 9.90575 17.062 12.1764 14.7432C13.0331 13.8578 13.1076 12.9456 12.3997 12.0067C11.0178 13.3799 9.79789 14.3415 8.73984 14.8917C7.89375 14.9718 7.20786 15.0213 6.68216 15.0402C6.28053 15.9385 5.70071 16.6527 4.94268 17.1827C2.2774 16.8314 0.629837 15.9617 0 14.5735C1.96043 11.3273 3.17666 9.4464 3.64867 8.93076C4.12983 5.78997 5.33191 3.96564 7.25492 3.45775C7.53152 1.26932 8.06893 0.116734 8.86712 0C10.153 1.64745 11.15 2.53134 11.8582 2.65165C15.8289 3.16113 18.8704 5.17922 20.9407 8.66911C22.9277 13.2044 23.0567 17.826 21.3697 22.5707" sodipodi:nodetypes="ccccccccccccc"/><path id="shape01" transform="matrix(7.78401374715181 0 0 7.78401374715181 31.544309915158 187.926598701733)" fill="#ffffff" fill-rule="evenodd" stroke="#000000" stroke-width="0.72" stroke-linecap="square" stroke-linejoin="bevel" d="M3.27804 0L17.588 0.09C20.0679 0.673461 20.4948 3.00798 20.438 5.73L0.0380395 5.73C-0.197996 2.86953 0.638399 0.783593 3.27804 0Z" sodipodi:nodetypes="ccccc"/><path id="shape1" transform="matrix(7.78401403755432 0 0 7.78401403755432 62.0984948742487 57.6474119705454)" fill="#000000" fill-rule="evenodd" stroke-opacity="0" stroke="#000000" stroke-width="0" stroke-linecap="square" stroke-linejoin="bevel" d="M2.05167 2.03766C2.64886 1.93231 2.93539 1.44962 2.79413 0.934576C2.96539 0.369734 1.98661 -0.0246027 1.66983 0.00119541C0.606422 0.267381 0.0498124 1.01519 0 2.24463" sodipodi:nodetypes="cccc"/><path id="shape2" transform="matrix(7.78401403755432 0 0 7.78401403755432 123.033105599767 42.1343293628181)" fill="#e6e6e6" fill-rule="evenodd" stroke-opacity="0" stroke="#000000" stroke-width="0" stroke-linecap="square" stroke-linejoin="bevel" d="M0.255265 18.4067C1.77277 18.4303 4.77284 18.4365 5.92075 18.4234C6.72987 17.2822 7.61767 11.987 6.66303 8.43826C5.69809 3.30584 2.22022 0.861965 0 0C0.933372 0.840457 4.49074 4.55231 4.53183 7.65757C4.9805 10.3156 1.44682 16.5811 0.255265 18.4067Z" sodipodi:nodetypes="cccccc"/><path id="shape3" transform="matrix(7.78401403755432 0 0 7.78401403755432 102.213360860301 85.1548746155481)" fill="#e6e6e6" fill-rule="evenodd" stroke-opacity="0" stroke="#000000" stroke-width="0" stroke-linecap="square" stroke-linejoin="bevel" d="M0 2.04161C0.195924 1.34307 0.824848 -0.0133799 1.37876 9.97188e-05C1.68383 0.852467 1.16675 2.36648 0.863945 3.71625C0.62582 2.77886 0.457469 2.47167 0 2.04161Z" sodipodi:nodetypes="cccc"/><path id="shape4" transform="matrix(7.78401403755432 0 0 7.78401403755432 44.0531950063112 116.573998596018)" fill="#e6e6e6" fill-rule="evenodd" stroke-opacity="0" stroke="#000000" stroke-width="0" stroke-linecap="square" stroke-linejoin="bevel" d="M0 3.31336C0.218788 1.85907 0.482956 0.883712 1.13325 0.104423C1.68812 -0.340674 2.51466 0.75865 3.0625 1.12355C2.29157 1.21141 1.90831 1.12111 1.51014 1.22398C1.28477 1.78584 0.681537 2.77753 0 3.31336Z" sodipodi:nodetypes="ccccc"/>
</svg>
