<?xml version="1.0" standalone="no"?>
<!DOCTYPE svg PUBLIC "-//W3C//DTD SVG 20010904//EN" "http://www.w3.org/TR/2001/REC-SVG-20010904/DTD/svg10.dtd">
<!-- Created using Krita: https://krita.org -->
<svg xmlns="http://www.w3.org/2000/svg" 
    xmlns:xlink="http://www.w3.org/1999/xlink"
    xmlns:krita="http://krita.org/namespaces/svg/krita"
    xmlns:sodipodi="http://sodipodi.sourceforge.net/DTD/sodipodi-0.dtd"
    width="240pt"
    height="240pt"
    viewBox="0 0 240 240">
<defs/>
<path id="shape0" transform="matrix(7.74244623831693 0 0 7.74244623831693 54.4652053622881 5.67316896548993)" fill="#ffffff" fill-rule="evenodd" stroke="#000000" stroke-width="0.72" stroke-linecap="square" stroke-linejoin="miter" stroke-miterlimit="2" d="M2.96748 22.948C1.87966 21.6631 -0.428148 18.2009 0.0692618 13.98C0.339334 10.1201 4.70504 5.31358 5.93426 4.395C5.67084 3.93067 4.99788 2.62368 5.61889 1.47872C6.26975 0.154342 7.4246 0.00848023 7.92926 0C8.69642 0.0574898 9.69585 0.358021 10.5093 2.49C10.6667 2.92126 6.91271 6.35776 6.91313 15.2476C7.39493 15.2609 8.83659 15.3893 9.47426 15.48C9.57474 11.4158 10.2897 8.14577 11.6193 5.67C17.0561 11.7124 17.6861 17.4824 13.5093 22.98" sodipodi:nodetypes="cccccccccc"/><path id="shape01" transform="matrix(7.74244594946522 0 0 7.74244594946522 39.3768939526055 183.826853835361)" fill="#ffffff" fill-rule="evenodd" stroke="#000000" stroke-width="0.72" stroke-linecap="square" stroke-linejoin="bevel" d="M3.27804 0L17.588 0.09C20.0679 0.673461 20.4948 3.00798 20.438 5.73L0.0380395 5.73C-0.197996 2.86953 0.638399 0.783593 3.27804 0Z" sodipodi:nodetypes="ccccc"/><path id="shape1" transform="matrix(7.74244623831693 0 0 7.74244623831693 119.756108122319 79.9236704705029)" fill="#e6e6e6" fill-rule="evenodd" stroke-opacity="0" stroke="#000000" stroke-width="0" stroke-linecap="square" stroke-linejoin="bevel" d="M0 13.0866C1.31336 13.1128 3.17099 13.1239 4.8312 13.0951C5.94847 11.6989 7.32757 9.09311 7.43327 6.78064C7.65378 3.98855 6.64621 1.68493 5.63641 0C6.10427 2.24704 6.3474 5.56781 5.54428 7.69403C4.14124 11.1806 1.09193 12.4321 0 13.0866Z" sodipodi:nodetypes="cccccc"/><path id="shape2" transform="matrix(7.74244623831693 0 0 7.74244623831693 94.4088678951709 13.9065189403921)" fill="#e6e6e6" fill-rule="evenodd" stroke-opacity="0" stroke="#000000" stroke-width="0" stroke-linecap="square" stroke-linejoin="bevel" d="M1.36251 14.5233C1.34456 11.6871 1.91523 8.11065 2.41775 6.75522C2.62335 5.75858 4.51668 2.02076 4.98484 1.52181C4.776 0.806519 4.58049 0.50635 4.18071 0C4.35254 1.601 0.805785 7.97475 0.184307 9.83551C-0.121396 11.4992 -0.229791 12.7551 1.36251 14.5233Z" sodipodi:nodetypes="cccccc"/>
</svg>
