<?xml version="1.0" standalone="no"?>
<!DOCTYPE svg PUBLIC "-//W3C//DTD SVG 20010904//EN" "http://www.w3.org/TR/2001/REC-SVG-20010904/DTD/svg10.dtd">
<!-- Created using Krita: https://krita.org -->
<svg xmlns="http://www.w3.org/2000/svg" 
    xmlns:xlink="http://www.w3.org/1999/xlink"
    xmlns:krita="http://krita.org/namespaces/svg/krita"
    xmlns:sodipodi="http://sodipodi.sourceforge.net/DTD/sodipodi-0.dtd"
    width="240pt"
    height="240pt"
    viewBox="0 0 240 240">
<defs/>
<path id="shape0" transform="matrix(8.34328508762882 0 0 8.34328508762882 32.9674513574065 181.108216985874)" fill="#ffffff" fill-rule="evenodd" stroke="#000000" stroke-width="0.72" stroke-linecap="square" stroke-linejoin="bevel" d="M3.27804 0L17.588 0.09C20.0679 0.673461 20.4948 3.00798 20.438 5.73L0.0380395 5.73C-0.197996 2.86953 0.638399 0.783593 3.27804 0Z" sodipodi:nodetypes="ccccc"/><path id="shape1" transform="matrix(8.34328508762882 0 0 8.34328508762882 48.1268878540933 9.15312693954299)" fill="#ffffff" fill-rule="evenodd" stroke="#000000" stroke-width="0.72" stroke-linecap="square" stroke-linejoin="miter" stroke-miterlimit="2" d="M2.53774 8.89181C1.81714 8.5174 0.881311 8.20123 0.381076 6.93C-0.0575159 5.81542 -0.117517 4.11542 0.201076 1.83C0.830806 1.26638 2.42135 0.953615 3.53108 0.989997C3.85057 1.41446 4.09057 2.54446 4.25108 4.38C5.2255 4.49121 5.8155 4.49121 6.02108 4.38C6.08944 3.73318 6.18924 1.28412 6.29108 0.389997C7.20292 -0.17413 9.47159 -0.110788 10.9411 0.479997C11.0672 1.13341 10.9725 3.36809 11.1511 4.35C11.6753 4.54636 12.2653 4.52636 12.9211 4.29C13.1311 2.81931 13.4111 1.73931 13.7611 1.05C14.646 0.736024 16.2989 1.27125 17.1211 1.89C16.9933 2.98903 17.2282 5.37368 16.7611 6.6C15.5845 9.03158 14.5687 8.67131 14.1375 8.76955" sodipodi:nodetypes="cccccccccccccc"/><path id="shape2" transform="matrix(8.34328508762882 0 0 8.34328508762882 57.3134877242274 82.2402836467249)" fill="#ffffff" fill-rule="evenodd" stroke="#000000" stroke-width="0.72" stroke-linecap="square" stroke-linejoin="bevel" d="M1.53 0.15L13.17 0L14.4 11.82L0 11.82Z" sodipodi:nodetypes="ccccc"/><path id="shape3" transform="matrix(8.34328508762882 0 0 8.34328508762882 114.060003283127 85.4400046089688)" fill="#e6e6e6" fill-rule="evenodd" stroke-opacity="0" stroke="#000000" stroke-width="0" stroke-linecap="square" stroke-linejoin="bevel" d="M0 0.0359571C1.21979 0.104903 4.64122 0.016395 6.01202 0C6.36559 3.13334 6.63356 6.44159 7.19141 11.0604C6.51034 11.038 5.67433 11.0675 4.97646 11.0676C5.20065 9.24894 3.8772 0.967879 0 0.0359571Z" sodipodi:nodetypes="ccccc"/><path id="shape4" transform="matrix(8.34328508762882 0 0 8.34328508762882 156.180001565558 22.3200005387825)" fill="#e6e6e6" fill-rule="evenodd" stroke-opacity="0" stroke="#000000" stroke-width="0" stroke-linecap="square" stroke-linejoin="bevel" d="M0 6.81746C0.820283 6.84683 1.62259 6.78993 2.04955 6.70959C2.55566 6.31447 3.03161 5.98661 3.53098 4.72476C3.82889 4.17131 3.74051 0.862831 3.7683 0.489016C3.56787 0.308625 2.95735 0.0926273 2.7615 0C2.54093 1.81419 1.87057 5.46495 0 6.81746Z" sodipodi:nodetypes="cccccc"/>
</svg>
