<?xml version="1.0" standalone="no"?>
<!DOCTYPE svg PUBLIC "-//W3C//DTD SVG 20010904//EN" "http://www.w3.org/TR/2001/REC-SVG-20010904/DTD/svg10.dtd">
<!-- Created using Krita: https://krita.org -->
<svg xmlns="http://www.w3.org/2000/svg" 
    xmlns:xlink="http://www.w3.org/1999/xlink"
    xmlns:krita="http://krita.org/namespaces/svg/krita"
    xmlns:sodipodi="http://sodipodi.sourceforge.net/DTD/sodipodi-0.dtd"
    width="240pt"
    height="240pt"
    viewBox="0 0 240 240">
<defs/>
<path id="shape0" transform="matrix(7.78706167824436 0 0 7.78706167824436 13.254183221619 10.5276251350841)" fill="#ffffff" fill-rule="evenodd" stroke="#000000" stroke-width="0.72" stroke-linecap="square" stroke-linejoin="miter" stroke-miterlimit="2" d="M6.84143 22.2665C6.71183 21.4372 2.73464 12.0556 2.31143 11.2865C-0.978237 10.5162 -0.303838 7.05359 1.53628 6.0737C3.2502 4.86664 6.39731 6.94265 5.12131 9.89208C5.95638 10.5489 7.86701 12.9118 8.36693 13.4559C8.4065 12.7631 8.59742 6.38648 8.57906 5.4373C5.35861 3.78204 7.1043 0.106796 9.72457 0.00672343C11.9652 -0.146495 13.358 2.34181 11.6338 5.14032C12.2917 7.21634 13.4601 11.1554 13.6814 11.7965C14.0197 11.1101 14.9932 8.10323 16.2795 5.16153C13.5172 2.07439 16.2578 -0.183653 18.422 0.0491499C20.4488 0.0965894 22.0515 3.22947 19.2281 5.39488C19.3675 7.72374 19.1112 12.7799 19.122 13.3923C19.5981 13.027 22.2125 10.4927 22.4313 10.2739C21.0523 6.83216 23.855 5.06597 26.0162 6.02249C27.8126 6.56509 28.7304 10.3275 25.2526 11.3134C24.9303 12.2692 20.9661 22.0373 20.7314 22.2665" sodipodi:nodetypes="ccccccccccccccccc"/><path id="shape01" transform="matrix(7.78706138772815 0 0 7.78706138772815 39.1336649811021 183.68469133002)" fill="#ffffff" fill-rule="evenodd" stroke="#000000" stroke-width="0.72" stroke-linecap="square" stroke-linejoin="bevel" d="M3.27804 0L17.588 0.09C20.0679 0.673461 20.4948 3.00798 20.438 5.73L0.0380395 5.73C-0.197996 2.86953 0.638399 0.783593 3.27804 0Z" sodipodi:nodetypes="ccccc"/><path id="shape1" transform="matrix(7.78706167824436 0 0 7.78706167824436 126.900928189852 64.1589691479894)" fill="#e6e6e6" fill-rule="evenodd" stroke-opacity="0" stroke="#000000" stroke-width="0" stroke-linecap="square" stroke-linejoin="bevel" d="M0 15.0384C2.03699 15.0864 4.11816 15.1086 5.91369 15.0769C6.71606 13.5147 9.59144 6.17305 10.3637 4.13021C11.4092 3.97618 12.4762 3.17435 12.589 2.16488C12.7482 1.11188 12.3919 0.292504 11.9843 0C11.9102 1.51967 11.4315 2.9111 9.85223 3.34425C8.39648 6.89399 4.64702 12.7808 0 15.0384Z" sodipodi:nodetypes="ccccccc"/><path id="shape2" transform="matrix(7.78706167824436 0 0 7.78706167824436 43.1402337574569 61.804491627094)" fill="#e6e6e6" fill-rule="evenodd" stroke-opacity="0" stroke="#000000" stroke-width="0" stroke-linecap="square" stroke-linejoin="bevel" d="M0.257349 0C0.837828 0.555158 1.16533 0.91224 1.23094 1.81415C1.22715 2.24279 1.17591 2.88102 0.825782 3.41665C1.28438 3.7147 2.05531 4.5666 2.30129 4.87401C1.81573 4.67346 0.178732 3.41504 0 3.24356C0.398864 2.4197 0.355692 1.01462 0.257349 0Z" sodipodi:nodetypes="cccccc"/><path id="shape3" transform="matrix(-7.78706167824436 0 0 -7.78706167824436 106.965548187358 69.3388314524579)" fill="#e6e6e6" fill-rule="evenodd" stroke-opacity="0" stroke="#000000" stroke-width="0" stroke-linecap="square" stroke-linejoin="bevel" d="M0.822244 6.79294C0.24949 6.12143 0.018678 5.80644 0.0178039 4.89091C-0.1023 4.23771 0.411032 2.93192 0.783761 2.5084C0.624244 1.82008 0.177092 0.739952 0.0655731 0C0.467037 0.914749 1.68512 2.73234 1.80572 3.68858C0.930992 4.79496 0.850896 6.42655 0.822244 6.79294Z" sodipodi:nodetypes="cccccc"/><path id="shape4" transform="matrix(7.78706167824436 0 0 7.78706167824436 154.117394462793 15.4760938614435)" fill="#e6e6e6" fill-rule="evenodd" stroke-opacity="0" stroke="#000000" stroke-width="0" stroke-linecap="square" stroke-linejoin="bevel" d="M0.785134 8.41665C0.837315 7.50037 0.788721 5.57304 0.780902 4.56676C1.46581 4.06279 2.31454 3.25292 2.355 2.25314C2.36661 1.42102 1.80995 0.330651 1.17002 0C1.43292 0.642613 0.669822 2.93544 0 3.64814C0.0332786 4.81019 0.487294 7.18085 0.785134 8.41665Z" sodipodi:nodetypes="cccccc"/>
</svg>
